PathFileType	4	(X/Y/Z)	/Volumes/GoogleDrive/My Drive/Research/Stanford/Projects/Digital Athlete Project/Sprinting/Sprint Simulation/sprinter/subjects/JA1/experimental_data/TRC/run0350cms.trc
DataRate	CameraRate	NumFrames	NumMarkers	Units	OrigDataRate	OrigDataStartFrame	OrigNumFrames
250.000000	250.000000	6	53	mm	250.000000	628	836
Frame#	Time	C7			RSH			LSH			MAN			T7			LARM			LELB			LFOREARM			LWR			RARM			RELB			RFOREARM			RWR			RASI			LASI			SACR			P1			P2			P3			LTHLP			LTHLD			LTHAP			LTHAD			LLEPI			LPAT			LTIAP			LTIAD			LTILAT			LLMAL			LHEEL			LMFS			LMFL			LP1MT			LTOE			LP5MT			RTHLP			RTHLD			RTHAP			RTHAD			RLEPI			RPAT			RTIAP			RTIAD			RTILAT			RLMAL			RHEEL			RMFS			RMFL			RP1MT			RTOE			RP5MT			x52			x53			
		X1	Y1	Z1	X2	Y2	Z2	X3	Y3	Z3	X4	Y4	Z4	X5	Y5	Z5	X6	Y6	Z6	X7	Y7	Z7	X8	Y8	Z8	X9	Y9	Z9	X10	Y10	Z10	X11	Y11	Z11	X12	Y12	Z12	X13	Y13	Z13	X14	Y14	Z14	X15	Y15	Z15	X16	Y16	Z16	X17	Y17	Z17	X18	Y18	Z18	X19	Y19	Z19	X20	Y20	Z20	X21	Y21	Z21	X22	Y22	Z22	X23	Y23	Z23	X24	Y24	Z24	X25	Y25	Z25	X26	Y26	Z26	X27	Y27	Z27	X28	Y28	Z28	X29	Y29	Z29	X30	Y30	Z30	X31	Y31	Z31	X32	Y32	Z32	X33	Y33	Z33	X34	Y34	Z34	X35	Y35	Z35	X36	Y36	Z36	X37	Y37	Z37	X38	Y38	Z38	X39	Y39	Z39	X40	Y40	Z40	X41	Y41	Z41	X42	Y42	Z42	X43	Y43	Z43	X44	Y44	Z44	X45	Y45	Z45	X46	Y46	Z46	X47	Y47	Z47	X48	Y48	Z48	X49	Y49	Z49	X50	Y50	Z50	X51	Y51	Z51	X52	Y52	Z52	X53	Y53	Z53	
628	2.512000	3450.343994	1459.620239	242.139633	3490.991211	1428.318115	412.130371	3470.623779	1438.449463	72.831230	3583.916260	1343.250244	239.580994	3360.733154	1282.123657	240.263092	3395.868164	1254.909790	-14.786961	3339.929199	1131.570801	-46.799694	3419.369385	1008.729919	-32.700882	3473.524170	890.917053	-20.166662	3440.364502	1255.463623	512.291565	3394.753662	1135.737671	567.559204	3506.029541	1046.395508	546.232056	3599.692383	960.990234	525.965088	3530.383545	997.794495	328.405121	3517.667725	973.924744	112.654068	3339.124268	1017.346863	235.109009	3325.649902	984.147827	186.565002	3325.785400	994.439880	291.535614	3300.134277	932.051758	243.869675	3509.605957	671.891052	54.250591	3556.926514	568.364746	68.941376	3628.722900	707.499390	140.800262	3661.198975	596.710022	143.730255	3587.228760	475.869629	96.079742	3667.244385	442.528961	163.206940	3441.830811	426.574219	174.206131	3302.874756	433.037292	170.944763	3373.482666	461.115387	92.243622	3155.912598	458.497437	111.671112	3130.038574	528.177917	156.069656	3138.275635	359.287140	170.446381	3113.995117	389.761475	107.440742	3080.557861	311.296021	211.524384	3088.146484	271.649994	172.525482	3060.695557	329.175476	87.333946	3496.429199	720.346313	425.394012	3536.484863	616.293335	407.065704	3621.780029	728.231018	352.462646	3637.907715	632.421997	338.056396	3564.661133	469.922577	372.194336	3650.498047	479.885681	321.241608	3497.307373	280.073059	265.510651	3425.872070	177.451904	241.650711	3463.994873	272.379974	347.649078	3353.054199	77.602638	291.627716	3275.467773	56.168503	244.400055	3450.275391	67.582993	244.613602	3404.929688	40.993782	298.931732	3503.562988	23.621141	204.549942	3544.760010	25.808762	242.540070	3470.924072	11.315157	330.338684	3501.048340	831.038635	-13.796144	3652.071777	913.228577	514.631042
629	2.516000	3463.688965	1459.366821	242.698883	3505.629883	1428.345703	412.419189	3483.788086	1438.246582	73.093857	3597.406250	1342.935913	239.483932	3374.121826	1282.004272	240.931107	3407.570801	1255.453491	-14.407962	3350.195801	1132.668091	-46.390450	3426.492676	1007.740173	-33.310150	3477.462891	888.271179	-21.576498	3457.206787	1254.838013	512.608459	3414.177246	1134.127197	567.792908	3527.656006	1048.106689	544.771545	3623.718506	965.798218	522.832214	3542.993896	996.702087	328.031677	3530.056641	974.173706	112.411873	3352.336670	1017.871826	235.814484	3338.865723	984.931396	186.908173	3339.105469	994.871704	292.068573	3313.179688	932.789490	244.195114	3527.437012	673.756958	53.954674	3577.477295	571.499817	68.500320	3645.145508	711.818176	141.137390	3680.526123	601.894714	144.121841	3609.467773	479.273163	96.156868	3689.471191	447.702484	163.562286	3464.939941	427.823761	174.491302	3326.000000	431.881927	171.297302	3396.013428	460.543915	92.250282	3178.282715	454.224396	112.038902	3150.786621	523.729248	155.457458	3161.640137	356.502991	173.896744	3136.458984	384.186432	108.420998	3106.241455	306.342773	213.352432	3114.779785	266.417358	174.799484	3086.076660	322.699799	89.001457	3505.797119	718.811157	425.074524	3544.044434	613.995605	406.777588	3631.714355	723.542725	353.093689	3646.125977	627.573547	338.414856	3570.994873	467.245453	371.781464	3656.494385	475.887085	320.583038	3500.128418	278.609131	265.450775	3427.515137	176.918610	241.599503	3466.843262	271.554138	347.360443	3353.549316	78.199043	291.550720	3275.775635	57.449173	244.446228	3450.565918	67.548737	244.519165	3405.026855	41.181355	298.880341	3503.475098	23.548540	204.563553	3544.658691	25.595697	242.520676	3470.952637	11.291870	330.352753	3503.368408	827.551025	-15.612867	3677.440186	919.768433	510.562988
630	2.520000	3477.111816	1459.413940	243.250183	3520.295166	1428.722778	412.620056	3496.441162	1438.327637	73.402916	3610.794678	1342.919067	239.369415	3387.636475	1282.192505	241.754166	3419.094482	1256.279297	-14.022770	3360.312256	1134.104736	-46.042099	3433.908936	1007.483154	-33.969048	3481.495361	886.425049	-22.995871	3473.911377	1254.537109	512.862366	3433.179443	1133.047974	567.841797	3549.031250	1050.500854	543.233459	3647.449951	971.460999	519.473755	3556.888672	996.143250	327.833893	3542.753906	974.801392	112.163719	3365.637939	1018.776978	236.371368	3352.182129	985.978577	187.376633	3352.523682	995.562012	292.526825	3326.456299	933.683350	244.478119	3545.200928	676.047485	53.722675	3597.750977	575.050415	68.206497	3661.556885	716.344543	141.675385	3699.733643	607.479797	144.559891	3631.642822	482.953064	96.256317	3711.803711	453.267426	163.833542	3487.928955	429.099152	174.565308	3348.896973	430.754272	171.690598	3418.458008	460.210266	92.346931	3200.409912	449.588379	112.387642	3171.344971	518.922974	155.227753	3186.486084	351.381348	173.861374	3158.040039	377.129517	109.317924	3132.211182	301.174133	215.258896	3141.425537	261.121002	177.052139	3111.500977	315.852356	90.775764	3515.154297	717.580505	424.659271	3551.225098	612.013550	406.395660	3641.358154	719.131592	353.939667	3654.052734	623.075378	338.940277	3576.902588	464.880585	371.330811	3662.242188	472.306427	319.984863	3503.437500	276.825409	265.437164	3429.321533	176.499008	241.321869	3469.476562	270.943512	347.098541	3354.075684	78.832748	291.455688	3275.989258	58.881508	244.209824	3450.966553	67.501617	244.481812	3405.174316	41.378025	298.798431	3503.451416	23.530672	204.581894	3544.608643	25.437237	242.504227	3470.845947	11.246815	330.295227	3505.681152	824.897217	-17.418751	3702.489258	927.259155	506.186462
631	2.524000	3490.566895	1459.699951	243.745972	3534.943359	1429.424438	412.869080	3509.443359	1438.736206	73.677841	3624.342041	1343.282593	239.154510	3401.145752	1282.463501	242.538300	3430.567871	1257.470215	-13.672398	3370.302002	1135.935425	-45.783215	3441.325928	1007.677856	-34.531300	3485.769043	885.259399	-24.178560	3490.563232	1254.665649	513.091064	3452.111328	1132.356689	567.875366	3570.056641	1053.550293	541.580017	3670.805664	977.936462	515.988586	3570.860596	995.906494	327.613312	3555.949463	975.703308	112.181747	3379.157227	1019.900085	236.836319	3365.633057	987.265808	187.756775	3366.005371	996.410400	293.043549	3339.668213	934.926941	244.591110	3562.808105	678.819641	53.496040	3617.297852	579.204041	67.228729	3677.893066	721.215149	142.114883	3718.901123	613.494385	144.964127	3653.585693	487.061737	96.190651	3734.245117	459.314606	164.087494	3510.831055	430.672546	174.975800	3371.914795	429.498230	172.123230	3440.612305	459.950073	92.467606	3222.549072	444.869629	113.081993	3191.595703	513.819031	155.353943	3211.129639	346.662933	174.609970	3182.166748	371.373535	110.513260	3158.408936	295.466583	217.115250	3168.782715	255.489792	179.435760	3137.072510	308.221649	92.681366	3524.379883	716.693726	424.244019	3558.244141	610.358337	406.012817	3650.605957	715.275391	354.744354	3661.812988	619.250427	339.477173	3582.061279	462.836639	371.022217	3667.689209	469.158905	319.442230	3506.707031	275.551697	265.526642	3431.042725	176.194580	241.261246	3471.774658	270.545929	346.878998	3354.697998	79.559128	291.326202	3276.285889	60.396488	244.383698	3451.233643	67.514786	244.395538	3405.263428	41.715473	298.728638	3503.290527	23.563942	204.584778	3544.546387	25.318588	242.485703	3470.736328	11.335561	330.265961	3508.357178	823.040161	-18.916779	3727.148193	935.650574	501.676971
632	2.528000	3504.113281	1460.327759	244.271515	3549.619629	1430.375488	413.009216	3522.554199	1439.395386	74.021240	3637.711914	1343.944824	238.887634	3414.799561	1283.094360	243.327759	3441.868408	1259.017334	-13.384456	3380.196289	1138.170410	-45.522663	3448.664795	1008.386230	-35.062691	3490.191162	884.777588	-25.179466	3507.024170	1255.123413	513.286804	3470.807373	1132.152710	567.820312	3590.862061	1057.040771	539.784424	3693.768799	985.119995	512.371582	3583.859375	995.519287	327.673767	3569.126221	976.906189	112.172852	3392.769287	1021.202026	237.476532	3379.191650	988.822266	188.154144	3379.658691	997.509277	293.446411	3353.115479	936.230957	244.762131	3580.402588	681.944458	53.413010	3637.406006	583.434265	67.114075	3694.035645	726.422607	142.519485	3737.614746	619.867676	145.292038	3675.163818	491.714569	96.180534	3756.135010	465.548828	164.290909	3533.606201	432.522217	175.190887	3394.539307	428.041809	172.615601	3462.533691	459.870361	92.670830	3244.717285	439.711304	113.817642	3211.809570	508.220306	155.227646	3235.875244	341.562958	175.966599	3206.263428	365.196625	111.543571	3184.865479	289.125824	219.386429	3196.238281	249.521301	181.551239	3163.084961	300.697479	94.371918	3533.532471	716.058411	423.826294	3565.043701	609.049316	405.651794	3659.747070	712.201111	355.290649	3669.388916	616.299500	340.016357	3586.513428	461.195831	370.487061	3672.831055	466.325500	319.049866	3509.776367	274.369904	265.514862	3432.785156	176.181473	241.194824	3473.728760	270.404968	346.606140	3355.210938	80.477722	291.261780	3276.586182	62.183987	244.445511	3451.587891	67.549492	244.354828	3405.418945	42.056870	298.673126	3503.377930	23.510311	204.636536	3544.340332	25.245583	242.392548	3470.674072	11.335790	330.259644	3511.297119	821.953491	-20.156317	3751.317871	944.899353	497.041382
633	2.532000	3517.709717	1461.239868	244.694595	3564.176758	1431.690918	413.160461	3535.370361	1440.276855	74.322266	3651.313232	1344.841064	238.542908	3428.519287	1283.892944	244.172699	3453.102295	1260.932739	-13.166610	3390.207275	1140.662842	-45.108559	3456.020752	1009.489319	-35.471027	3494.780273	884.915588	-25.950571	3523.386475	1255.878296	513.408203	3489.345215	1132.343018	567.653625	3611.290039	1061.104370	537.888428	3716.312988	992.995300	508.636414	3597.509521	995.427490	327.829193	3582.712646	978.405090	112.427650	3406.546875	1022.711304	237.772507	3392.934326	990.441406	188.461731	3393.416748	998.780273	293.700134	3366.708496	937.734985	244.899933	3597.894287	685.403442	53.241802	3657.184082	588.177368	67.420326	3710.049316	731.743042	142.836685	3755.982666	626.471741	145.538651	3696.399658	496.572113	96.210251	3777.723633	472.189636	164.326935	3556.047852	434.121185	175.563644	3417.044678	426.223206	173.499374	3484.331787	459.672394	92.693886	3266.851074	434.351318	114.365273	3231.971680	502.133270	155.586166	3260.804688	336.160187	177.107101	3230.459717	358.751984	112.612495	3211.421875	283.101715	220.390060	3224.022705	243.304733	183.455475	3189.382812	292.969513	95.951706	3542.546631	715.718689	423.405182	3571.732910	608.017883	405.254822	3669.007080	709.802185	355.265961	3676.893066	613.757019	339.985443	3590.655518	459.785126	370.297791	3677.562744	463.902100	319.077606	3512.582764	273.718811	265.389465	3434.379639	176.432358	241.201675	3475.576660	270.610382	346.384705	3355.733398	81.502586	291.298065	3276.865723	64.147629	244.431885	3452.092041	67.748291	244.536484	3405.503174	42.396053	298.727142	3503.263428	23.499792	204.661713	3544.114258	25.109255	242.353424	3470.614746	11.295845	330.220978	3514.479736	821.600952	-21.111797	3775.045654	954.906311	492.277649
